HIERARCHY
ROOT Hips
{
 OFFSET 0.000000 0.000000 0.000000
 CHANNELS 6 Xposition Yposition Zposition Yrotation Xrotation Zrotation
 JOINT Chest
 {
  OFFSET 0.000000 10.385163 0.011643
  CHANNELS 3 Yrotation Xrotation Zrotation
  JOINT Chest2
  {
   OFFSET 0.000000 11.579334 -0.021150
   CHANNELS 3 Yrotation Xrotation Zrotation
   JOINT Chest3
   {
    OFFSET 0.000000 10.463212 0.000000
    CHANNELS 3 Yrotation Xrotation Zrotation
    JOINT Chest4
    {
     OFFSET 0.000000 10.463212 0.000000
     CHANNELS 3 Yrotation Xrotation Zrotation
     JOINT Neck
     {
      OFFSET 0.000000 14.544862 0.000000
      CHANNELS 3 Yrotation Xrotation Zrotation
      JOINT Head
      {
       OFFSET 0.000000 9.730630 -0.050295
       CHANNELS 3 Yrotation Xrotation Zrotation
       End Site
       {
        OFFSET 0.000000 18.757589 -0.026270
       }
      }
     }
     JOINT RightCollar
     {
      OFFSET -2.985174 8.102313 0.000000
      CHANNELS 3 Yrotation Xrotation Zrotation
      JOINT RightShoulder
      {
       OFFSET -13.558590 0.000000 0.000000
       CHANNELS 3 Yrotation Xrotation Zrotation
       JOINT RightElbow
       {
        OFFSET -28.208579 0.000000 0.000000
        CHANNELS 3 Yrotation Xrotation Zrotation
        JOINT RightWrist
        {
         OFFSET -23.322907 0.000000 0.010349
         CHANNELS 3 Yrotation Xrotation Zrotation
         End Site
         {
          OFFSET -17.603338 0.000000 0.000000
         }
        }
       }
      }
     }
     JOINT LeftCollar
     {
      OFFSET 2.985174 8.102313 0.000000
      CHANNELS 3 Yrotation Xrotation Zrotation
      JOINT LeftShoulder
      {
       OFFSET 13.558590 0.000000 0.000000
       CHANNELS 3 Yrotation Xrotation Zrotation
       JOINT LeftElbow
       {
        OFFSET 28.208579 0.000000 0.000000
        CHANNELS 3 Yrotation Xrotation Zrotation
        JOINT LeftWrist
        {
         OFFSET 23.322907 0.000000 0.010349
         CHANNELS 3 Yrotation Xrotation Zrotation
         End Site
         {
          OFFSET 17.603338 0.000000 0.000000
         }
        }
       }
      }
     }
    }
   }
  }
 }
 JOINT RightHip
 {
  OFFSET -8.341224 -0.057053 -0.005822
  CHANNELS 3 Yrotation Xrotation Zrotation
  JOINT RightKnee
  {
   OFFSET 0.000000 -44.280013 0.005508
   CHANNELS 3 Yrotation Xrotation Zrotation
   JOINT RightAnkle
   {
    OFFSET 0.000000 -43.261728 0.009315
    CHANNELS 3 Yrotation Xrotation Zrotation
    JOINT RightToe
    {
     OFFSET 0.000000 -8.082955 18.257715
     CHANNELS 3 Yrotation Xrotation Zrotation
     End Site
     {
      OFFSET 0.000000 -1.634678 7.189621
     }
    }
   }
  }
 }
 JOINT LeftHip
 {
  OFFSET 8.341224 -0.057053 -0.005822
  CHANNELS 3 Yrotation Xrotation Zrotation
  JOINT LeftKnee
  {
   OFFSET 0.000000 -44.280013 0.005508
   CHANNELS 3 Yrotation Xrotation Zrotation
   JOINT LeftAnkle
   {
    OFFSET 0.000000 -43.261728 0.009315
    CHANNELS 3 Yrotation Xrotation Zrotation
    JOINT LeftToe
    {
     OFFSET 0.000000 -8.082955 18.257715
     CHANNELS 3 Yrotation Xrotation Zrotation
     End Site
     {
      OFFSET 0.000000 -1.634678 7.189621
     }
    }
   }
  }
 }
}
MOTION
Frames: 7
Frame Time: 0.016667
0.000000 95.489079 0.000000 0.000000 -5.826342 0.000000 0.000000 11.116423 0.000000 0.000000 -5.290081 0.000000 0.000000 0.000000 0.000000 0.000000 0.000000 0.000000 0.000000 12.665069 0.000000 0.000000 0.575450 0.000000 0.000000 0.000000 0.000000 0.000000 0.000000 0.000000 2.337306 0.000000 0.000000 -2.337306 0.000000 0.000000 0.000000 0.000000 0.000000 0.000000 0.000000 0.000000 -2.337306 0.000000 0.000000 2.337306 0.000000 0.000000 0.000000 8.578828 0.000000 0.000000 1.905768 0.000000 0.000000 -4.658254 0.000000 0.000000 0.000000 0.000000 0.000000 8.578828 0.000000 0.000000 1.905768 0.000000 0.000000 -4.658254 0.000000 0.000000 0.000000 0.000000
-163.329661 97.281829 347.298975 -137.377329 -10.450332 -0.861324 0.109061 5.290696 1.170922 0.035056 2.351689 0.518594 0.035057 2.351690 0.518594 0.024292 1.763799 0.388756 -0.526435 19.021659 -1.340218 -0.535175 -0.858660 -2.286377 -5.129005 0.228157 3.160857 19.228648 -8.707174 83.052340 -2.151213 16.209349 -6.203945 0.801884 4.597521 5.093569 1.582506 0.557946 -11.167439 -7.039568 -3.393334 -72.201109 -5.857721 6.679344 -2.481113 4.925430 4.522428 -5.661313 5.694015 15.598985 2.408103 1.277519 -0.599737 0.270627 -15.657063 -5.690705 -2.728176 -0.000000 0.000000 -0.000000 12.411840 16.319034 4.160460 0.714092 0.845487 -0.030169 1.831770 -8.118694 0.683311 0.000000 0.000000 0.000000
-163.330033 97.260964 347.348503 -137.362162 -10.387717 -0.773314 0.097132 5.253795 1.095247 0.030712 2.335244 0.485149 0.030712 2.335244 0.485149 0.021176 1.751459 0.363694 -0.517322 19.045288 -1.325739 -0.523446 -0.814759 -2.262665 -5.126765 0.232440 3.261472 19.197942 -8.580703 83.076291 -2.150734 16.131129 -6.197005 0.831361 4.510381 5.057936 1.608403 0.551052 -11.122074 -7.047251 -3.315612 -72.166751 -5.909071 6.675633 -2.522224 4.890273 4.543136 -5.672960 5.618388 15.547384 2.279893 1.374901 -0.644221 0.247377 -15.718365 -5.686764 -2.708977 0.000000 0.000000 0.000000 12.312703 16.225469 3.971832 0.793594 0.912870 0.081418 1.787515 -8.099433 0.658766 0.000000 0.000000 0.000000
-163.331691 97.244789 347.392813 -137.348040 -10.340197 -0.698896 0.086787 5.223994 1.027974 0.026948 2.321963 0.455411 0.026948 2.321963 0.455411 0.018477 1.741493 0.341409 -0.509070 19.065339 -1.308764 -0.514037 -0.777534 -2.234128 -5.128457 0.238109 3.356130 19.165041 -8.470122 83.094773 -2.146474 16.057049 -6.190635 0.865051 4.440255 5.019224 1.633044 0.547002 -11.081036 -7.051524 -3.242124 -72.137086 -5.961988 6.672911 -2.565164 4.851553 4.555320 -5.677112 5.542728 15.510779 2.169234 1.468964 -0.682849 0.226493 -15.772654 -5.683200 -2.693555 0.000000 0.000000 0.000000 12.223155 16.149937 3.806424 0.864667 0.971227 0.178795 1.750490 -8.081779 0.640075 0.000000 -0.000000 0.000000
-163.335666 97.235983 347.428721 -137.332546 -10.317478 -0.645115 0.077723 5.205649 0.973161 0.023580 2.313781 0.431184 0.023580 2.313781 0.431184 0.016050 1.735353 0.323255 -0.501559 19.079893 -1.287826 -0.507168 -0.750560 -2.198120 -5.137521 0.246707 3.442947 19.123496 -8.382917 83.105888 -2.134092 15.981398 -6.183195 0.907411 4.391060 4.970609 1.656948 0.547735 -11.045988 -7.049105 -3.175106 -72.113434 -6.022688 6.673019 -2.614134 4.804387 4.551679 -5.667173 5.461119 15.499667 2.084541 1.561020 -0.711544 0.209283 -15.817066 -5.681911 -2.684712 0.000000 0.000000 0.000000 12.146373 16.104598 3.675659 0.921939 1.014569 0.254640 1.723986 -8.065449 0.630100 -0.000000 0.000000 -0.000000
-163.340927 97.231866 347.459412 -137.318187 -10.309841 -0.604925 0.070230 5.194409 0.926743 0.020797 2.308763 0.410663 0.020797 2.308763 0.410663 0.014044 1.731587 0.307877 -0.494934 19.090874 -1.264397 -0.502662 -0.730248 -2.157283 -5.150491 0.256724 3.523798 19.079737 -8.311614 83.111535 -2.117982 15.909884 -6.176400 0.953920 4.358907 4.918867 1.679623 0.551329 -11.015263 -7.043299 -3.112331 -72.094453 -6.084946 6.674121 -2.664950 4.753632 4.539572 -5.649718 5.379346 15.503624 2.017269 1.649755 -0.734382 0.194469 -15.854456 -5.681016 -2.679606 0.000000 0.000000 0.000000 12.078859 16.077513 3.567888 0.970713 1.048985 0.316193 1.704736 -8.050688 0.625973 -0.000000 -0.000000 0.000000
-163.345660 97.229088 347.489218 -137.313519 -10.303201 -0.570782 0.066747 5.184306 0.884932 0.019739 2.304260 0.392142 0.019739 2.304260 0.392142 0.013323 1.728209 0.293993 -0.490500 19.100487 -1.240403 -0.502324 -0.712506 -2.114722 -5.160913 0.264963 3.598363 19.050863 -8.249658 83.112067 -2.107556 15.863751 -6.176040 0.994914 4.349083 4.881053 1.698327 0.554913 -10.988203 -7.040650 -3.051320 -72.080869 -6.131677 6.671729 -2.706844 4.710359 4.532419 -5.637010 5.314788 15.506503 1.959411 1.727910 -0.757732 0.180610 -15.886382 -5.675252 -2.673488 0.000000 0.000000 0.000000 12.019715 16.050964 3.471435 1.018453 1.083752 0.370955 1.690176 -8.039842 0.624953 -0.000000 0.000000 -0.000000
